#N canvas 961 100 947 1004 10;
#X msg 14 57 \; pd dsp 1;
#X obj 20 10 loadbang;
#X obj 24 138 loadbang;
#X obj 24 184 netreceive -u -b;
#X obj 24 209 oscparse;
#X obj 24 234 list trim;
#X msg 24 160 listen 8888;
#X obj 24 256 route mod;
#X obj 40 309 print;
#X obj 125 510 osc~;
#X obj 191 576 dac~;
#X obj 176 418 noise~;
#X obj 211 479 *~;
#X obj 254 529 osc~;
#X obj 109 583 bob~;
#X connect 1 0 0 0;
#X connect 2 0 6 0;
#X connect 3 0 4 0;
#X connect 4 0 5 0;
#X connect 5 0 7 0;
#X connect 6 0 3 0;
#X connect 7 0 8 0;
#X connect 7 0 12 1;
#X connect 7 0 9 0;
#X connect 7 0 14 1;
#X connect 9 0 10 0;
#X connect 9 0 10 1;
#X connect 9 0 14 0;
#X connect 11 0 12 0;
#X connect 12 0 13 0;
#X connect 13 0 10 0;
#X connect 13 0 10 1;
#X connect 14 0 10 0;
#X connect 14 0 10 1;
